<?xml version="1.0" encoding="UTF-8" standalone="no"?>
<!-- Created with Inkscape (http://www.inkscape.org/) -->

<svg
   width="300mm"
   height="297mm"
   viewBox="0 0 300 297"
   version="1.1"
   id="svg5"
   inkscape:version="1.2.2 (b0a8486541, 2022-12-01)"
   sodipodi:docname="drawing.svg"
   xmlns:inkscape="http://www.inkscape.org/namespaces/inkscape"
   xmlns:sodipodi="http://sodipodi.sourceforge.net/DTD/sodipodi-0.dtd"
   xmlns="http://www.w3.org/2000/svg"
   xmlns:svg="http://www.w3.org/2000/svg">
  <sodipodi:namedview
     id="namedview7"
     pagecolor="#505050"
     bordercolor="#eeeeee"
     borderopacity="1"
     inkscape:showpageshadow="0"
     inkscape:pageopacity="0"
     inkscape:pagecheckerboard="0"
     inkscape:deskcolor="#505050"
     inkscape:document-units="mm"
     showgrid="false"
     inkscape:zoom="0.77593294"
     inkscape:cx="482.00042"
     inkscape:cy="562.54861"
     inkscape:window-width="1920"
     inkscape:window-height="1056"
     inkscape:window-x="0"
     inkscape:window-y="0"
     inkscape:window-maximized="1"
     inkscape:current-layer="layer1" />
  <defs
     id="defs2" />
  <g
     inkscape:label="Layer 1"
     inkscape:groupmode="layer"
     id="layer1">
    <path
       style="fill:#000000;stroke-width:0.264583"
       d="m 102.13344,70.02591 -25.832648,70.8184"
       id="path506" />
    <rect
       style="fill:#483e37;stroke-width:0.264583"
       id="rect564"
       width="309.70041"
       height="303.17401"
       x="-3.7680209"
       y="-1.6092527" />
    <path
       style="fill:#000000;stroke-width:0.101703"
       d="m 110.22631,121.98787 c 0.39402,1.19136 0.56007,2.53816 1.07806,3.66087 0.36419,0.78935 1.03363,1.27667 1.32887,2.10526 0.71968,2.01979 1.09219,4.249 1.2875,6.45373 0.1119,1.26314 -0.22474,3.63263 0.039,4.89254 0.13266,0.6337 0.32098,1.28737 0.42752,1.92567 0.19735,1.18243 0.19918,2.42038 0.35113,3.60799 0.1629,1.27306 0.70228,2.49524 0.70228,3.77969 0,0.5259 0.0224,-1.05261 0,-1.57769 -0.033,-0.77406 -0.18834,-1.51203 -0.23409,-2.28676 -0.12872,-2.17947 -0.078,-4.36921 -0.078,-6.55537 0,-1.22139 -0.0779,-2.48672 0,-3.70383 0.0404,-0.63104 0.26178,-1.43959 0.11705,-2.07421 -0.0658,-0.28848 -0.21923,-0.54029 -0.31126,-0.81004 -0.2853,-0.83616 -0.49041,-2.43866 -0.58521,-3.30304 -0.14474,-1.3196 -0.30183,-2.76815 -0.73872,-3.99685 -0.21318,-0.59954 -0.70193,-1.16834 -1.05342,-1.62614 -0.19531,-0.25438 -0.5328,-0.3292 -0.74129,-0.55897 -0.97307,-1.07244 -1.17886,-1.99599 -1.59886,-3.45062 -0.0819,-0.28365 -0.21097,-0.5468 -0.27128,-0.83857"
       id="path945" />
    <path
       style="fill:#000000;stroke-width:0.068777"
       d="m 69.96022,52.881423 c -0.5453,1.81 -1.06197,3.65893 -1.56701,5.49942 -0.60682,2.21138 -1.14179,4.36964 -1.64697,6.63957 -0.0734,0.32994 -0.33021,0.87629 -0.30359,1.29135 0.0317,0.49473 0.11927,0.97583 0.16432,1.46776 0.15291,1.66971 0.29366,3.34601 0.42254,5.0213 0.0594,0.77242 0.32551,3.2295 0.18779,4.22077 -0.24995,1.79906 -0.7238,3.52406 -1.05576,5.28412 -0.0721,0.38248 -0.42253,1.87995 -0.42253,2.65488 0,0.0745 0.0428,-0.13192 0.0584,-0.20184 0.0945,-0.42231 0.18356,-0.84795 0.28,-1.26909 0.34952,-1.52627 0.72064,-3.0475 1.19718,-4.48054 0.12951,-0.38947 0.26604,-0.77251 0.39907,-1.15877 0.19561,-0.54075 0.40272,-1.07069 0.58685,-1.62226 0.18027,-0.54002 0.33051,-1.10576 0.49295,-1.66089 0.0526,-0.17975 0.23114,-0.7632 0.1867,-0.84355 -0.62424,-1.12873 -0.98237,-2.63981 -1.17081,-4.12813 -0.13147,-1.03839 -0.0411,-2.04204 -0.0939,-3.08224 -0.0583,-1.14861 -0.0665,-2.31455 -0.0464,-3.47142 0.0152,-0.87506 -0.0145,-2.07157 0.27849,-2.87943 0.30443,-0.83927 1.12147,-3.29165 1.12147,-4.37957"
       id="path951" />
    <path
       style="fill:#000000;stroke-width:0.0747589"
       d="m 94.896115,84.212662 c -1.209822,7.553057 -1.493012,15.580884 -1.853349,23.510408 -0.01419,0.31216 -0.264152,4.83216 -0.150537,5.3074 0.813245,3.4017 1.830447,6.60485 2.861742,9.66462 0.25754,0.7641 0.531385,1.49794 0.797203,2.24668 0.102966,0.29002 0.387845,1.06451 0.494617,1.44463 0.08947,0.3185 -0.02269,0.73997 0.133474,-0.15929 0.109294,-0.62936 0.229969,-1.24941 0.322578,-1.89297 0.120507,-0.83742 0.224387,-1.68764 0.322575,-2.54056 0.07069,-0.61408 0.244028,-1.27694 0.150535,-1.87444 -0.01922,-0.12281 -0.104693,0.10871 -0.146236,0.19705 -0.132095,0.28092 -0.245552,0.55793 -0.408596,0.74723 -0.530921,0.6164 -1.046094,0.0997 -1.39576,-0.94649 -0.630742,-1.8872 -0.980563,-5.18147 -1.376327,-7.42242 -0.07771,-0.43999 -0.222317,-0.79434 -0.317339,-1.18342 -0.01493,-0.0611 0.002,-0.30165 0,-0.33941 -0.08075,-1.53449 0.20648,-2.90951 0.365585,-4.38371 0.120744,-1.58489 -0.0017,-0.14956 0.150537,-1.54426 0.08137,-0.74594 -0.198453,-2.64947 -0.236008,-3.27291 -0.08603,-1.42822 -0.185272,-3.20723 -0.236557,-4.632788 -0.0498,-1.384278 -0.0027,-2.828711 0.04301,-4.20386 0.01613,-0.485817 -0.01346,-0.961884 0.0215,-1.447783 0.11548,-1.604954 0.279567,-3.292016 0.279567,-4.925914"
       id="path953" />
    <path
       style="fill:#000000;stroke-width:0.11919"
       d="m 188.73709,41.282642 c -1.24404,7.54567 -2.60992,14.9106 -3.92959,22.3515 -4.36408,24.60666 3.5193,-19.01923 -4.27309,23.61299 -0.56493,3.09072 -1.14431,6.25671 -1.5833,9.51564 -0.0732,0.54324 -0.18584,1.08155 -0.18584,1.66315 0,0.2145 -0.075,-0.62454 0,-0.91865 0.18859,-0.73924 0.40375,-1.43663 0.65044,-2.02206 0.38674,-0.91778 0.79365,-1.79088 1.23894,-2.46161 1.20919,-1.82141 2.4656,-3.37954 3.71074,-4.99406 0.33308,-0.4319 0.67702,-0.79533 1.02213,-1.1429 0.31231,-0.31455 0.68064,-0.35168 0.3432,-0.35168 -0.56862,0 -1.13599,-0.036 -1.70353,0.0879 -0.19787,0.0432 -1.49969,0.60825 -1.68106,0.26375 -0.14701,-0.27921 0.0592,-1.01301 0.14906,-1.44548 0.30057,-1.44689 0.56617,-2.94102 0.80531,-4.48367 0.0562,-0.36251 0.0622,-0.77964 0.1239,-1.13491 0.0516,-0.29745 0.21785,-0.66654 0.26297,-0.91912 0.12643,-0.70775 0.27396,-1.60664 0.39261,-2.36435 0.36977,-2.36153 0.56985,-4.86381 0.86725,-7.29698 0.39572,-3.23748 0.91277,-6.36425 1.23894,-9.67067 0.0977,-0.99038 0.13926,-1.99861 0.21681,-2.98913 0.1361,-1.73835 0.30974,-3.15029 0.30974,-4.93554"
       id="path959" />
    <path
       style="fill:#000000;stroke-width:0.124148"
       d="m 140.69411,107.30898 c -0.18507,6.8507 -0.93288,13.69162 -1.49009,20.52362 -0.0792,0.97158 -0.13994,1.9459 -0.26886,2.91191 -0.0993,0.74429 -0.32263,1.64515 -0.32263,2.41499 0,0.0512 0.015,-0.10475 0,-0.15362 -0.10109,-0.32986 -0.25163,-0.62011 -0.2151,-0.98092 0.12953,-1.27922 0.53244,-2.87626 0.86036,-4.06569 0.32123,-1.16517 0.67793,-2.32097 1.07544,-3.46132 0.67838,-1.94613 1.77447,-4.09799 1.77447,-6.22924 0,-0.16721 -0.0345,0.33257 -0.0538,0.49861 -0.0661,0.56844 -0.15147,1.13445 -0.21509,1.70319 -0.15563,1.39138 -0.29334,2.78636 -0.48394,4.17558 -0.46941,3.42127 -1.02844,6.82673 -1.66693,10.21916 -0.21447,1.13952 -0.64526,2.31622 -0.64526,3.4833 0,0.13006 0,-0.26013 0,-0.39019 0,-0.34796 0.0182,-0.69643 0,-1.04389 -0.11535,-2.20001 -0.30184,-1.69291 0,-3.73604 0.34034,-2.30381 1.76632,-5.26891 2.52728,-7.30726 0.56563,-1.51514 1.3677,-3.08303 1.7207,-4.67005 0.10923,-0.49107 0.11346,-0.98064 0.26886,-1.48343 0.25242,-0.81672 1.4139,-2.86465 1.1256,-3.77949 -0.12162,-0.38593 -2.28153,0.87918 -2.63528,0.71051 -0.13467,-0.0642 -0.12086,-0.27854 -0.16132,-0.42464 -0.10194,-0.36809 0.0515,-0.76872 0,-1.14761 -0.0484,-0.35639 -0.17924,-0.69593 -0.26886,-1.0439 -0.10754,-0.73255 -0.22886,-1.46313 -0.32262,-2.19767 -0.19327,-1.51388 -0.31469,-3.02471 -0.60296,-4.52591 z"
       id="path961" />
  </g>
</svg>
